# xmcd
#
# Track frame offsets:
#	150
#	18472
#	35696
#	52151
#	67691
#	85266
#	101929
#	116496
#	133258
#	149673
#	167555
#	185632
#	199575
#	218992
#
# Disc length: 3140 seconds
#
# Revision: 2
# Processed by: cddbd v1.5.2PL0 Copyright (c) Steve Scherf et al.
# Submitted via: audiograbber 1.83.01
#
DISCID=d60c420e
DTITLE=Various Artist - SD 159
DYEAR=2007
DGENRE=Karaoke
TTITLE0=Rascal Flatts - Take Me There
TTITLE1=Carrie Underwood,  - So Small
TTITLE2=Gentry Montgomery  - What Do Ya Think About That
TTITLE3=Jason Aldean,  - Laughed Until We Cried
TTITLE4=Big and Rich - Between Raising Hell And Amazing Grace
TTITLE5=Gary Allan,  - Watching Airplanes
TTITLE6=Jo Dee Messina,  - Biker Chick
TTITLE7=Allen Jackson,  - It's All About Him
TTITLE8=Jennifer Hanson,  - Joyride
TTITLE9=Billy Ray Cyrus,  - Ready, Set, Don't Go
TTITLE10=Rissi Palmer,  - Country Girl
TTITLE11=Chris Cagle,  - What Kinda Gone
TTITLE12=Kenny Chesney,  - Flip Flop Summer
TTITLE13=Rascal Flatts - Revolution
EXTD=
EXTT0=
EXTT1=
EXTT2=
EXTT3=
EXTT4=
EXTT5=
EXTT6=
EXTT7=
EXTT8=
EXTT9=
EXTT10=
EXTT11=
EXTT12=
EXTT13=
PLAYORDER=
